<svg width="200" height="44" viewBox="0 0 214 44" fill="none" xmlns="http://www.w3.org/2000/svg">
<g clip-path="url(#clip0_0_4009)">
<g clip-path="url(#clip1_0_4009)">
<mask id="mask0_0_4009" style="mask-type:luminance" maskUnits="userSpaceOnUse" x="0" y="0" width="214" height="44">
<g clip-path="url(#clip2_0_4009)">
<g clip-path="url(#clip3_0_4009)">
<g clip-path="url(#clip4_0_4009)">
<g clip-path="url(#clip5_0_4009)">
<g clip-path="url(#clip6_0_4009)">
<g clip-path="url(#clip7_0_4009)">
<g clip-path="url(#clip8_0_4009)">
<path d="M207.439 2.42726L205.706 7.75748H204.141L206.525 0.848145H208.409L210.792 7.75748H209.226L207.495 2.42726H207.439ZM205.608 6.18216V5.04201H209.306V6.18216H205.608ZM211.62 0.848145H213.081V7.75748H211.62V0.848145Z" fill="white"/>
</g>
<path d="M54.7746 15.875V33.5947C54.1079 33.5092 52.82 33.4665 50.911 33.4665H49.2441V5.62616C50.1331 5.68315 51.1133 5.71164 52.1846 5.71164C53.2559 5.71164 54.0138 5.65465 54.4583 5.54068L61.4761 17.4564L68.2118 5.54068C68.6563 5.65465 69.5054 5.71164 70.7591 5.71164C72.0128 5.71164 73.0841 5.68315 73.9731 5.62616V33.4665H72.3062C70.3972 33.4665 69.1093 33.5092 68.4426 33.5947V14.892L61.6214 27.0983L54.7746 15.875ZM95.1375 32.1758C93.1601 33.2471 91.3708 33.7828 89.7695 33.7828C88.1682 33.7828 86.7977 33.6317 85.658 33.3297C84.5182 33.0334 83.5523 32.5918 82.7602 32.0048C81.1475 30.8252 80.3412 29.1156 80.3412 26.8761C80.3412 24.8702 81.3271 23.2005 83.2988 21.8671C85.4414 20.4196 88.3505 19.6959 92.0261 19.6959L92.8552 19.713C93.0262 19.7301 93.2143 19.7415 93.4194 19.7472C93.6302 19.7529 93.8183 19.77 93.9836 19.7985C93.8753 17.5703 92.9151 16.2682 91.1029 15.8921C90.5046 15.7668 89.8692 15.7041 89.1968 15.7041C88.5243 15.7041 87.8633 15.7639 87.2137 15.8836C86.564 16.0032 85.9343 16.16 85.3246 16.3537C83.974 16.7868 83.0081 17.2797 82.4269 17.8325L82.3585 17.7983L81.7345 13.1825C84.1963 11.8889 86.8888 11.2421 89.8122 11.2421C94.3483 11.2421 97.2488 12.8776 98.5139 16.1486C98.9185 17.1914 99.1208 18.3653 99.1208 19.6703V27.2266C99.1208 28.8393 99.6907 29.9391 100.83 30.526L97.0522 33.9879C96.2601 33.5719 95.6219 32.9679 95.1375 32.1758ZM94.0092 27.9189V23.551C93.6331 23.4826 93.2427 23.4484 92.8382 23.4484H92.0005C88.9289 23.4484 86.9743 24.1294 86.1366 25.4914C85.8859 25.896 85.7605 26.3205 85.7605 26.765C85.7605 27.2095 85.8403 27.6027 85.9999 27.9446C86.1594 28.2865 86.4273 28.5686 86.8034 28.7908C87.5271 29.2068 88.6041 29.4148 90.0345 29.4148C91.4591 29.4148 92.7897 29.0757 94.0263 28.3976C94.0149 28.2438 94.0092 28.0842 94.0092 27.9189ZM115.31 28.8763C117.105 28.8763 118.336 28.409 119.003 27.4745H119.174L119.234 32.3211C118.55 32.9992 117.285 33.4494 115.439 33.6716C114.937 33.7457 114.313 33.7828 113.567 33.7828C112.826 33.7828 112.02 33.6431 111.148 33.3639C110.276 33.0847 109.535 32.6317 108.925 32.0048C107.66 30.7112 107.028 28.6882 107.028 25.9358V16.4563H103.873C103.862 16.0517 103.856 15.6414 103.856 15.2254V12.0114C103.856 11.7778 103.862 11.6609 103.873 11.6609H107.028V5.71164H112.139V11.6609H117.875V16.4563H112.139V24.9699C112.139 27.1582 112.743 28.4033 113.951 28.7053C114.345 28.8193 114.798 28.8763 115.31 28.8763ZM128.397 18.277V31.1329C128.397 32.3296 128.423 33.1075 128.474 33.4665H123.277V11.6609H128.397V13.2679C129.577 11.9174 130.816 11.2421 132.115 11.2421C133.42 11.2421 134.449 11.4017 135.201 11.7208L134.825 17.3367L134.74 17.3965C134.25 16.5361 133.241 16.1058 131.714 16.1058C131.127 16.1058 130.531 16.3024 129.927 16.6956C129.323 17.0945 128.813 17.6216 128.397 18.277ZM141.766 8.82305L137.073 5.43811C138.184 3.70005 139.347 2.16998 140.561 0.847916L145.048 4.37818C144.45 5.11329 143.892 5.83701 143.373 6.54933C143.373 6.54933 142.837 7.30724 141.766 8.82305ZM142.561 11.6609V31.1329C142.561 32.3296 142.589 33.1075 142.646 33.4665H137.347V11.6609H142.561ZM145.587 33.4665L153.186 22.3457L145.792 11.6609H152.323L156.186 18.3197L160.358 11.6609H166.435C166.418 11.6609 166.264 11.8632 165.974 12.2678L159.169 21.9696L166.897 33.4665H160.426L156.246 26.3889L152.117 33.4665H145.587ZM174.803 2.36943V31.1329C174.803 32.3296 174.829 33.1075 174.88 33.4665H169.581V2.36943H174.803ZM184.044 42.6041L178.659 40.7322L180.035 39.6209C182.109 37.9399 183.827 35.4581 185.189 32.1758L186.146 29.8593L178.154 11.6609H184.001L189.01 24.2605L193.66 11.6609H199.669C198.951 12.6639 198.068 14.5273 197.019 17.2512L193.891 24.9956C189.702 34.8427 186.42 40.7122 184.044 42.6041Z" fill="white"/>
</g>
</g>
</g>
</g>
</g>
</g>
</mask>
<g mask="url(#mask0_0_4009)">
<path d="M213.087 0.0857544H0.912109V43.3661H213.087V0.0857544Z" fill="url(#paint0_linear_0_4009)"/>
</g>
<mask id="mask1_0_4009" style="mask-type:luminance" maskUnits="userSpaceOnUse" x="0" y="0" width="214" height="44">
<g clip-path="url(#clip9_0_4009)">
<g clip-path="url(#clip10_0_4009)">
<g clip-path="url(#clip11_0_4009)">
<g clip-path="url(#clip12_0_4009)">
<path d="M10.53 4.89468C11.1677 4.89468 11.7792 4.64135 12.2302 4.19043C12.6811 3.7395 12.9344 3.12792 12.9344 2.49022C12.9344 1.85251 12.6811 1.24093 12.2302 0.790005C11.7792 0.339081 11.1677 0.0857545 10.53 0.0857545H3.31657C3.00079 0.0856755 2.68809 0.147815 2.39633 0.268623C2.10457 0.38943 1.83947 0.566538 1.61618 0.789829C1.39289 1.01312 1.21579 1.27822 1.09498 1.56998C0.97417 1.86173 0.91203 2.17444 0.912109 2.49022V40.9616C0.91203 41.2774 0.97417 41.5901 1.09498 41.8819C1.21579 42.1736 1.39289 42.4387 1.61618 42.662C1.83947 42.8853 2.10457 43.0624 2.39633 43.1832C2.68809 43.304 3.00079 43.3662 3.31657 43.3661H10.53C11.1677 43.3661 11.7792 43.1128 12.2302 42.6618C12.6811 42.2109 12.9344 41.5993 12.9344 40.9616C12.9344 40.3239 12.6811 39.7123 12.2302 39.2614C11.7792 38.8105 11.1677 38.5572 10.53 38.5572H5.72103V4.89468H10.53Z" fill="white"/>
<path d="M36.9792 0.0858155H29.7658C29.1281 0.0858155 28.5165 0.339142 28.0656 0.790066C27.6147 1.24099 27.3613 1.85257 27.3613 2.49028C27.3613 3.12798 27.6147 3.73957 28.0656 4.19049C28.5165 4.64141 29.1281 4.89474 29.7658 4.89474H34.5747V38.5572H29.7658C29.1281 38.5572 28.5165 38.8105 28.0656 39.2615C27.6147 39.7124 27.3613 40.324 27.3613 40.9617C27.3613 41.5994 27.6147 42.211 28.0656 42.6619C28.5165 43.1128 29.1281 43.3661 29.7658 43.3661H36.9792C37.295 43.3662 37.6077 43.3041 37.8994 43.1833C38.1912 43.0625 38.4563 42.8854 38.6796 42.6621C38.9029 42.4388 39.08 42.1737 39.2008 41.8819C39.3216 41.5902 39.3837 41.2775 39.3836 40.9617V2.49028C39.3837 2.1745 39.3216 1.86179 39.2008 1.57004C39.08 1.27828 38.9029 1.01318 38.6796 0.78989C38.4563 0.566599 38.1912 0.389491 37.8994 0.268684C37.6077 0.147876 37.295 0.0857365 36.9792 0.0858155Z" fill="white"/>
</g>
</g>
</g>
</g>
</mask>
<g mask="url(#mask1_0_4009)">
<path d="M213.087 0.0857544H0.912109V43.3661H213.087V0.0857544Z" fill="url(#paint1_linear_0_4009)"/>
</g>
</g>
</g>
<defs>
<linearGradient id="paint0_linear_0_4009" x1="0.912109" y1="23.8034" x2="213.067" y2="25.8835" gradientUnits="userSpaceOnUse">
<stop stop-color="#FF6CAB"/>
<stop offset="1" stop-color="#7366FF"/>
</linearGradient>
<linearGradient id="paint1_linear_0_4009" x1="0.912109" y1="23.8034" x2="213.067" y2="25.8835" gradientUnits="userSpaceOnUse">
<stop stop-color="#FF6CAB"/>
<stop offset="1" stop-color="#7366FF"/>
</linearGradient>
<clipPath id="clip0_0_4009">
<rect width="213" height="43.452" fill="white" transform="translate(0.5)"/>
</clipPath>
<clipPath id="clip1_0_4009">
<rect width="212.174" height="43.2803" fill="white" transform="translate(0.912109 0.0857544)"/>
</clipPath>
<clipPath id="clip2_0_4009">
<rect width="212.174" height="43.2803" fill="white" transform="translate(0.912109 0.0857544)"/>
</clipPath>
<clipPath id="clip3_0_4009">
<rect width="212.174" height="43.2803" fill="white" transform="translate(0.912109 0.0857544)"/>
</clipPath>
<clipPath id="clip4_0_4009">
<rect width="163.845" height="41.7562" fill="white" transform="translate(49.2402 0.847946)"/>
</clipPath>
<clipPath id="clip5_0_4009">
<rect width="163.845" height="41.7562" fill="white" transform="translate(49.2402 0.847946)"/>
</clipPath>
<clipPath id="clip6_0_4009">
<rect width="163.845" height="41.7562" fill="white" transform="translate(49.2402 0.847946)"/>
</clipPath>
<clipPath id="clip7_0_4009">
<rect width="163.845" height="41.7562" fill="white" transform="translate(49.2402 0.847946)"/>
</clipPath>
<clipPath id="clip8_0_4009">
<rect width="8.9407" height="6.90965" fill="white" transform="translate(204.141 0.847931)"/>
</clipPath>
<clipPath id="clip9_0_4009">
<rect width="212.174" height="43.2803" fill="white" transform="translate(0.912109 0.0857544)"/>
</clipPath>
<clipPath id="clip10_0_4009">
<rect width="212.174" height="43.2803" fill="white" transform="translate(0.912109 0.0857544)"/>
</clipPath>
<clipPath id="clip11_0_4009">
<rect width="38.4714" height="43.2803" fill="white" transform="translate(0.912109 0.0857544)"/>
</clipPath>
<clipPath id="clip12_0_4009">
<rect width="38.4714" height="43.2803" fill="white" transform="translate(0.912109 0.0857544)"/>
</clipPath>
</defs>
</svg>
